<svg width="697" height="419" xmlns="http://www.w3.org/2000/svg" xmlns:xlink="http://www.w3.org/1999/xlink" xml:space="preserve" overflow="hidden"><defs><clipPath id="clip0"><rect x="330" y="330" width="697" height="419"/></clipPath></defs><g clip-path="url(#clip0)" transform="translate(-330 -330)"><path d="M330 368.334C330 347.163 347.163 330 368.334 330L521.666 330C542.837 330 560 347.163 560 368.334L560 709.666C560 730.837 542.837 748 521.666 748L368.334 748C347.163 748 330 730.837 330 709.666Z" fill="#002B6B" fill-rule="evenodd"/><path d="M564 487.334C564 466.163 581.163 449 602.334 449L755.666 449C776.837 449 794 466.163 794 487.334L794 710.666C794 731.837 776.837 749 755.666 749L602.334 749C581.163 749 564 731.837 564 710.666Z" fill="#4E95D9" fill-rule="evenodd"/><path d="M797 560.501C797 539.789 813.79 523 834.501 523L989.499 523C1010.21 523 1027 539.789 1027 560.501L1027 710.499C1027 731.21 1010.21 748 989.499 748L834.501 748C813.79 748 797 731.21 797 710.499Z" fill="#FD4502" fill-rule="evenodd"/></g></svg>